<svg width="214" height="42" viewBox="0 0 214 42" fill="none" xmlns="http://www.w3.org/2000/svg">
<path d="M42.013 0.285645H0.28772V41.7151H42.013V0.285645Z" fill="url(#paint0_linear_5_79)"/>
<path d="M0 42V0H42.2999V41.7151V42H0ZM42.0129 41.7151V41.4303V41.7151ZM0.573811 41.4303H41.7253V0.570504H0.573811V41.4303Z" fill="#072508"/>
<path d="M6.6712 9.75552H17.5859C21.3971 9.75552 24.4582 11.6634 24.4582 15.4811C24.4582 18.0043 23.0589 19.6531 20.5169 20.1378V20.2031C23.7096 20.5267 25.5002 23.1468 25.5002 25.896C25.5002 31.6534 21.3638 32.7865 16.5427 32.7865H6.6712V9.75552ZM11.0371 19.007H16.2171C18.1386 19.007 19.8991 18.2622 19.8991 16.0626C19.8991 14.3154 18.7576 13.1842 16.2171 13.1842H11.0371V19.007ZM11.0371 28.9699H16.7056C19.3444 28.9699 20.9404 28.1598 20.9404 25.7665C20.9404 23.1783 19.3115 22.2405 16.6727 22.2405H11.0371V28.9699Z" fill="white"/>
<path d="M28.235 16.4189H32.2104V18.6823H32.2754C33.2206 16.8067 35.0442 16.0311 37.3574 16.0311V20.0424C34.6529 20.0424 32.2104 21.3035 32.2104 24.861V32.7869H28.235V16.4189Z" fill="white"/>
<path d="M33.0038 5.99446H33.3454C33.6943 5.99446 33.9662 5.83493 33.9662 5.46764C33.9662 5.073 33.736 4.83105 33.3385 4.83105C32.8573 4.83105 32.7035 5.24658 32.669 5.64122L31.741 5.44675C31.894 4.53288 32.4801 4.05505 33.4077 4.05505C34.1816 4.05505 34.9004 4.46375 34.9004 5.31533C34.9004 5.86266 34.6353 6.1745 34.1189 6.30554V6.3196C34.7122 6.45747 35.0117 6.8806 35.0194 7.48301C35.0194 8.45993 34.2103 8.93054 33.3033 8.93054C32.3753 8.93054 31.6572 8.50172 31.6572 7.31019H32.5501C32.5501 7.81536 32.8079 8.15531 33.3308 8.15531C33.7777 8.15531 34.0428 7.85715 34.0428 7.42832C34.0428 6.90149 33.708 6.72867 33.345 6.72867H33.0034V5.99446H33.0038Z" fill="white"/>
<path d="M36.0044 4.13824H38.6547L38.5644 4.95564H36.7301L36.5836 5.93864C36.8273 5.72441 37.1207 5.60628 37.4347 5.60628C38.4458 5.60628 38.9274 6.34733 38.9274 7.2198C38.9274 8.30079 38.1669 8.93055 37.1627 8.93055C36.2768 8.93055 35.5511 8.49451 35.5094 7.54569L36.486 7.47011C36.4929 7.86475 36.7511 8.1971 37.1696 8.1971C37.7411 8.1971 37.9512 7.71928 37.9512 7.2274C37.9512 6.6041 37.6298 6.34087 37.1555 6.34087C36.8066 6.34087 36.6115 6.49281 36.4791 6.79135L35.6701 6.72906L36.0044 4.13824Z" fill="white"/>
<path d="M49.3023 24.3083C48.1773 24.3083 48.0487 24.3402 48.0487 25.2017C48.0487 27.7872 50.1699 30.1489 53.0627 30.1489C54.252 30.1489 55.3453 29.798 56.4061 29.0638C57.1452 28.5533 57.6275 27.9467 58.2702 27.9467C58.7522 27.9467 59.1065 28.2984 59.1065 28.7451C59.1065 29.2237 58.5915 30.0217 57.5958 30.8193C55.8273 32.2555 54.1881 32.9901 51.9705 32.9901C47.3089 32.9901 43.8377 29.4151 43.8377 24.7873C43.8377 19.7124 47.3732 16.0744 52.3561 16.0744C56.5671 16.0744 59.2029 18.6272 59.2029 22.6807C59.2029 24.1807 58.8165 24.3091 57.3701 24.3091H49.5272C49.4308 24.3083 49.3666 24.3083 49.3023 24.3083ZM54.5091 22.4566C55.281 22.4566 55.5377 22.3609 55.5377 21.8504C55.5377 19.8392 54.0271 18.1479 51.8087 18.1479C49.6554 18.1479 48.209 19.8392 48.209 21.8504C48.209 22.3609 48.4339 22.4566 49.2051 22.4566H54.5091Z" fill="white"/>
<path d="M75.1747 30.0213C76.1399 30.3085 76.7183 30.3085 76.7183 30.9785C76.7183 31.936 75.1426 33.0216 73.0535 33.0216C71.8313 33.0216 70.9958 31.3302 70.6745 31.3302C70.1596 31.3302 68.7453 33.0216 65.8847 33.0216C62.7027 33.0216 60.5486 31.0111 60.5486 28.0424C60.5486 24.6277 63.1205 22.5208 67.7496 22.5208C68.5851 22.5208 69.6137 22.6165 70.803 22.808V21.0843C70.803 19.1696 69.9347 18.1163 68.3919 18.1163C67.299 18.1163 66.3992 18.5949 65.563 19.5525C64.8874 20.3189 64.4701 21.2119 63.1197 21.2119C62.2513 21.2119 61.7054 20.6057 61.7054 19.6801C61.7054 17.8292 64.1809 16.074 68.4879 16.074C70.9633 16.074 72.6989 16.744 73.6312 17.9249C74.4674 18.9781 74.5317 20.5742 74.5317 22.8722V28.1058C74.532 29.2233 74.6927 29.8937 75.1747 30.0213ZM68.424 24.5954C66.045 24.5954 64.695 25.7125 64.695 27.5315C64.695 29.2229 65.8843 30.3723 67.8456 30.3723C70.0632 30.3723 70.8027 29.4462 70.8027 27.2767V24.8826C69.9347 24.6912 69.1317 24.5954 68.424 24.5954Z" fill="white"/>
<path d="M83.226 21.659C83.226 22.329 83.2582 22.6481 83.5474 22.6481C83.708 22.6481 84.3836 22.2333 85.4122 21.3077C86.7301 20.0949 87.4692 19.361 87.4692 18.9782C87.4692 18.5626 86.2477 18.5945 86.2477 17.7016C86.2477 16.6164 87.5656 16.3931 90.2981 16.3931C92.2915 16.3931 93.2872 16.7759 93.2872 17.6058C93.2872 18.8505 91.7445 18.4673 90.3941 19.2653C89.7514 19.6482 89.0441 20.3824 88.1444 21.2758C87.6937 21.7232 87.4367 22.0103 87.4367 22.2018C87.4367 22.5208 88.0151 23.255 89.0437 24.5958C91.3263 27.5319 92.8691 29.2237 93.6411 29.7984C94.7336 30.5641 96.1479 30.3089 96.1479 31.394C96.1479 32.3512 95.1196 32.7025 92.8695 32.7025C91.9369 32.7025 91.3267 32.6068 91.1339 32.543C90.2334 32.2232 89.4947 31.075 88.1769 29.4147C85.348 25.8405 83.8687 23.957 83.5474 23.957C83.2582 23.957 83.226 24.213 83.226 24.8192C83.226 25.0106 83.226 25.234 83.226 25.5211C83.226 28.2023 83.2903 29.7349 83.6759 30.1816C84.1265 30.6921 85.348 30.5326 85.348 31.5539C85.348 32.48 84.1587 32.7029 81.5868 32.7029C78.7258 32.7029 77.5044 32.5434 77.5044 31.4582C77.5044 30.7236 78.1792 30.7236 78.7258 30.4369C79.4006 30.054 79.5291 28.905 79.5291 26.7343C79.5291 25.5215 79.497 24.0531 79.497 22.2022C79.497 21.5002 79.497 20.8298 79.497 20.1917C79.497 15.4359 79.4649 13.61 79.0471 13.1315C78.7901 12.8443 78.243 12.7805 77.5686 12.5564C77.0537 12.3969 76.8288 12.2692 76.8288 11.7907C76.8288 11.1203 77.4401 10.865 78.6294 10.4502C80.4935 9.81137 81.9078 9.61993 82.5183 9.61993C83.226 9.61993 83.4188 10.0355 83.4188 10.9923C83.4188 12.6836 83.226 14.3815 83.226 17.5739V21.659Z" fill="white"/>
<path d="M102.675 27.372C102.675 29.0953 102.772 30.0851 103.318 30.3719C104.058 30.7867 104.764 30.691 104.764 31.5528C104.764 32.4788 103.607 32.7018 101.035 32.7018C98.1742 32.7018 96.921 32.5423 96.921 31.4571C96.921 30.7225 97.5966 30.7225 98.1421 30.4357C98.7855 30.0848 98.914 29.2867 98.914 27.8821C98.914 27.2121 98.8819 26.446 98.8819 25.4881C98.8819 24.8819 98.8819 24.3079 98.8819 23.7967C98.8819 21.1793 98.8498 19.807 98.3027 19.5198C97.4998 19.105 96.5354 19.1688 96.5354 18.3708C96.5354 17.8603 96.9856 17.5094 97.8533 17.158C100.071 16.2966 101.743 16.0736 102.064 16.0736C102.707 16.0736 102.9 16.5203 102.9 17.4459C102.9 17.8607 102.9 18.435 102.868 19.1373L102.739 23.2866C102.707 24.6912 102.675 26.0635 102.675 27.372ZM100.553 10.1274C102.032 10.1274 103.029 11.0534 103.029 12.202C103.029 13.351 101.936 14.3401 100.36 14.3401C98.914 14.3401 97.9171 13.4786 97.9171 12.3615C97.9175 11.1806 99.0426 10.1274 100.553 10.1274Z" fill="white"/>
<path d="M116.763 16.0736C118.434 16.0736 119.945 16.8713 120.878 17.9565C122.164 19.4883 122.26 21.3711 122.26 23.9247C122.26 25.1375 122.26 25.8721 122.26 26.1273C122.26 26.8931 122.228 27.5316 122.228 28.1059C122.228 29.3825 122.324 30.0852 122.967 30.4361C123.514 30.7233 124.189 30.7233 124.189 31.4575C124.189 32.5427 122.967 32.6703 120.171 32.6703C117.535 32.6703 116.314 32.5107 116.314 31.5532C116.314 30.691 117.02 30.7867 117.76 30.3723C118.338 30.0533 118.434 28.9681 118.434 26.9896C118.434 21.8508 118.37 19.2015 115.381 19.2015C114.224 19.2015 113.066 19.9354 112.488 21.1163C111.878 22.329 111.845 24.4679 111.845 27.5639C111.845 29.1595 111.878 30.0536 112.456 30.3727C113.196 30.7875 113.902 30.6917 113.902 31.5536C113.902 32.4796 112.745 32.7026 110.173 32.7026C107.312 32.7026 106.059 32.543 106.059 31.4579C106.059 30.7233 106.734 30.7233 107.28 30.4365C107.924 30.0855 108.052 29.2875 108.052 27.8829C108.052 27.2129 108.02 26.4468 108.02 25.4888C108.02 24.8826 108.02 24.3087 108.02 23.7975C108.02 21.1801 107.988 19.8077 107.44 19.5206C106.637 19.1058 105.673 19.1696 105.673 18.3716C105.673 17.8611 106.123 17.5102 106.991 17.1588C109.08 16.3612 110.623 16.1378 111.041 16.1378C111.651 16.1378 111.91 16.425 111.91 17.1588V18.0529C111.91 18.1486 111.91 18.2125 111.91 18.2444C111.91 18.372 111.91 18.4358 112.038 18.4358C112.103 18.4358 112.166 18.4039 112.199 18.372L112.584 18.021C113.549 17.1584 114.417 16.0736 116.763 16.0736Z" fill="white"/>
<path d="M125.441 22.2333C125.441 18.7221 128.399 16.0736 132.545 16.0736C133.67 16.0736 135.085 16.3288 136.788 16.7117C137.657 16.7117 138.588 16.265 139.842 15.4032C140.292 15.6903 140.55 16.074 140.55 16.4565C140.55 17.3498 139.874 18.2436 138.556 18.9143C139.006 19.7758 139.232 20.6057 139.232 21.5636C139.232 25.074 136.403 27.6276 132.031 27.6276C130.842 27.6276 129.749 27.4681 128.752 27.1171C128.302 27.5957 128.077 28.0105 128.077 28.3937C128.077 29.4462 129.137 29.8937 131.259 29.8937C132.899 29.8937 134.57 29.542 136.307 29.542C139.36 29.542 140.999 30.8186 140.999 33.085C140.999 36.4047 137.399 39.1178 131.935 39.1178C127.499 39.1178 124.67 37.0117 124.67 34.8083C124.67 33.6274 125.442 32.8298 126.984 31.9041C125.699 31.4574 124.991 30.5956 124.991 29.5101C124.991 28.3937 125.795 27.3401 127.37 26.3825C126.084 25.2974 125.441 23.8928 125.441 22.2333ZM128.206 34.4896C128.206 35.9258 129.781 37.0121 132.545 37.0121C135.631 37.0121 137.624 35.639 137.624 34.1071C137.624 33.0858 136.885 32.4796 135.471 32.4796C134.474 32.4796 132.995 32.7986 131.099 32.7986C130.455 32.7986 129.781 32.7667 129.041 32.671C128.463 33.2126 128.206 33.7877 128.206 34.4896ZM132.256 25.5203C134.088 25.5203 135.47 24.0523 135.47 21.8504C135.47 19.584 134.12 18.1159 132.288 18.1159C130.616 18.1159 129.266 19.6159 129.266 21.8185C129.266 24.0842 130.52 25.5203 132.256 25.5203Z" fill="white"/>
<path d="M207.066 31.0777C207.066 30.7905 207.001 30.6629 206.936 30.6629C206.84 30.6629 206.455 31.0138 205.716 31.5562C204.462 32.4823 203.24 32.9605 201.858 32.9605C197.872 32.9605 194.947 29.8649 194.947 25.0775C194.947 19.7789 198.226 16.1412 202.854 16.1412C205.105 16.1412 206.487 17.0988 206.744 17.0988C206.937 17.0988 206.969 16.8116 206.969 16.3004V15.1453C206.969 13.6769 206.776 13.1976 205.941 12.9108C205.169 12.6555 204.495 12.6556 204.495 11.921C204.495 11.219 205.169 10.9 206.519 10.4214C207.933 9.91052 209.058 9.71909 209.862 9.71909C210.601 9.71909 210.89 10.102 210.89 11.0595C210.89 11.6023 210.697 14.4495 210.697 21.1512C210.697 26.609 210.73 29.3859 211.18 29.7049C211.887 30.2154 213.173 29.8964 213.173 30.8539C213.173 31.6197 212.305 31.8753 210.633 32.4177C209.508 32.8006 208.351 32.9282 207.933 32.9282C207.322 32.9282 207.066 32.6091 207.066 31.8757V31.0777ZM206.905 21.8854C206.905 20.992 206.905 20.3851 206.583 19.9703C205.909 19.0766 204.527 18.3435 203.112 18.3435C200.765 18.3435 199.126 20.3532 199.126 23.8647C199.126 27.6622 200.99 30.0244 203.337 30.0244C205.619 30.0244 206.905 28.7797 206.905 26.3226V21.8854Z" fill="white"/>
<path d="M193.015 0.284882H151.288V41.7147H193.015V0.284882Z" fill="url(#paint1_linear_5_79)"/>
<path d="M151 41.9992V0H193.302V41.7147V41.9989H151V41.9992ZM193.015 41.7151V41.4303V41.7151ZM151.574 41.4303H192.728L192.727 0.570123H151.574V41.4303Z" fill="#072508"/>
<path d="M154.41 9.75552H165.322C169.134 9.75552 172.196 11.6642 172.196 15.4807C172.196 18.0035 170.795 19.6512 168.253 20.1374V20.2023C171.447 20.5252 173.238 23.1449 173.238 25.8933C173.238 31.6515 169.102 32.7853 164.279 32.7853H154.41V9.75552H154.41ZM158.775 19.0059H163.954C165.875 19.0059 167.636 18.2618 167.636 16.0633C167.636 14.3169 166.495 13.1839 163.954 13.1839H158.775V19.0059ZM158.775 28.9677H164.442C167.081 28.9677 168.679 28.159 168.679 25.765C168.679 23.1779 167.049 22.2405 164.41 22.2405H158.776V28.9677H158.775Z" fill="white"/>
<path d="M189.754 30.0354C189.754 31.7172 190.144 32.4294 190.372 32.7853H186.17C185.91 32.3968 185.78 31.7169 185.78 31.2964C184.249 32.5255 182.456 33.172 180.403 33.172C177.276 33.172 174.8 31.1995 174.8 28.031C174.8 24.8275 177.374 23.4032 179.817 22.9181L181.478 22.596C182.912 22.3051 184.77 21.9811 185.78 21.6256V21.1405C185.78 19.5232 184.379 19.0708 182.651 19.0708C180.339 19.0708 179.588 19.7496 179.588 21.5295L175.614 21.3669C175.614 17.5185 179.035 16.0322 182.651 16.0322C186.204 16.0322 189.753 16.7436 189.753 21.3996V30.0354H189.754ZM185.78 24.6011C185.26 24.8602 184.607 25.0543 183.889 25.1827L181.706 25.6366C180.208 25.9275 178.971 26.3472 178.971 27.9C178.971 29.1299 180.11 29.9385 181.544 29.9385C183.401 29.9385 185.78 29.0326 185.78 26.931V24.6011H185.78Z" fill="white"/>
<path d="M182.987 3.86475H185.638L185.547 4.68176H183.713L183.567 5.66552C183.811 5.45053 184.104 5.33279 184.418 5.33279C185.43 5.33279 185.91 6.07383 185.91 6.94706C185.91 8.02692 185.15 8.65743 184.146 8.65743C183.26 8.65743 182.534 8.22063 182.492 7.2722L183.469 7.19623C183.476 7.59087 183.734 7.92322 184.153 7.92322C184.725 7.92322 184.934 7.44578 184.934 6.95352C184.934 6.33022 184.613 6.067 184.138 6.067C183.79 6.067 183.594 6.21931 183.462 6.51748L182.653 6.45556L182.987 3.86475Z" fill="white"/>
<path d="M188.771 5.09768C188.743 4.76533 188.527 4.55756 188.206 4.55756C187.529 4.55756 187.376 5.43611 187.376 5.99028H187.39C187.508 5.81745 187.781 5.55461 188.317 5.55461C189.203 5.55461 189.72 6.18475 189.72 7.10583C189.72 7.97906 189.078 8.65743 188.136 8.65743C186.755 8.65743 186.441 7.43135 186.441 6.33706C186.441 4.84813 187.027 3.78119 188.213 3.78119C189.008 3.78119 189.538 4.19026 189.671 4.97917L188.771 5.09768ZM187.446 7.10583C187.446 7.5905 187.69 7.88144 188.137 7.88144C188.583 7.88144 188.827 7.5905 188.827 7.10583C188.827 6.62117 188.583 6.33022 188.137 6.33022C187.69 6.3306 187.446 6.62117 187.446 7.10583Z" fill="white"/>
<defs>
<linearGradient id="paint0_linear_5_79" x1="0.288103" y1="0.285986" x2="41.7165" y2="42.0102" gradientUnits="userSpaceOnUse">
<stop stop-color="#15453D"/>
<stop offset="1" stop-color="#006C24"/>
</linearGradient>
<linearGradient id="paint1_linear_5_79" x1="193.015" y1="41.7154" x2="151.585" y2="-0.00990777" gradientUnits="userSpaceOnUse">
<stop stop-color="#15453D"/>
<stop offset="1" stop-color="#006C24"/>
</linearGradient>
</defs>
</svg>
