<svg width="15" height="15" viewBox="0 0 15 15" fill="none" xmlns="http://www.w3.org/2000/svg">
<path fill-rule="evenodd" clip-rule="evenodd" d="M4.35561 1.54314C4.39915 1.49949 4.45088 1.46485 4.50783 1.44122C4.56478 1.41759 4.62583 1.40543 4.68748 1.40543C4.74914 1.40543 4.81019 1.41759 4.86714 1.44122C4.92409 1.46485 4.97582 1.49949 5.01936 1.54314L10.6444 7.16814C10.688 7.21168 10.7226 7.26341 10.7463 7.32036C10.7699 7.37731 10.7821 7.43836 10.7821 7.50001C10.7821 7.56167 10.7699 7.62272 10.7463 7.67967C10.7226 7.73662 10.688 7.78835 10.6444 7.83189L5.01936 13.4569C4.93134 13.5449 4.81196 13.5944 4.68748 13.5944C4.56301 13.5944 4.44363 13.5449 4.35561 13.4569C4.26759 13.3689 4.21814 13.2495 4.21814 13.125C4.21814 13.0005 4.26759 12.8812 4.35561 12.7931L9.64967 7.50001L4.35561 2.20689C4.31196 2.16335 4.27732 2.11162 4.25369 2.05467C4.23006 1.99772 4.2179 1.93667 4.2179 1.87501C4.2179 1.81336 4.23006 1.75231 4.25369 1.69536C4.27732 1.63841 4.31196 1.58668 4.35561 1.54314Z" fill="white"/>
</svg>
