<svg width="20" height="20" viewBox="0 0 20 20" fill="none" xmlns="http://www.w3.org/2000/svg">
<path d="M8.66667 15C10.1458 14.9997 11.5823 14.5045 12.7475 13.5933L16.4108 17.2567L17.5892 16.0783L13.9258 12.415C14.8375 11.2497 15.333 9.81285 15.3333 8.33332C15.3333 4.65749 12.3425 1.66666 8.66667 1.66666C4.99083 1.66666 2 4.65749 2 8.33332C2 12.0092 4.99083 15 8.66667 15ZM8.66667 3.33332C11.4242 3.33332 13.6667 5.57582 13.6667 8.33332C13.6667 11.0908 11.4242 13.3333 8.66667 13.3333C5.90917 13.3333 3.66667 11.0908 3.66667 8.33332C3.66667 5.57582 5.90917 3.33332 8.66667 3.33332Z" fill="white"/>
</svg>
